<mxfile host="app.diagrams.net" agent="Mozilla/5.0 (Windows NT 10.0; Win64; x64) AppleWebKit/537.36 (KHTML, like Gecko) Chrome/134.0.0.0 Safari/537.36" version="26.2.7">
  <diagram name="PÃ¡gina-1" id="r2lmJBkjOr9q9Da5gGD5">
    <mxGraphModel dx="2507" dy="874" grid="1" gridSize="10" guides="1" tooltips="1" connect="1" arrows="1" fold="1" page="1" pageScale="1" pageWidth="827" pageHeight="1169" math="0" shadow="0">
      <root>
        <mxCell id="0" />
        <mxCell id="1" parent="0" />
        <mxCell id="Ajes0fXNSLyTVFquIbNc-1" value="EVENTS" style="rounded=1;whiteSpace=wrap;html=1;labelBackgroundColor=none;fillColor=#FAE5C7;strokeColor=#0F8B8D;fontColor=#143642;" vertex="1" parent="1">
          <mxGeometry x="360" y="70" width="120" height="60" as="geometry" />
        </mxCell>
        <mxCell id="Ajes0fXNSLyTVFquIbNc-2" value="USERS" style="rounded=1;whiteSpace=wrap;html=1;labelBackgroundColor=none;fillColor=#FAE5C7;strokeColor=#0F8B8D;fontColor=#143642;" vertex="1" parent="1">
          <mxGeometry x="-60" y="470" width="120" height="60" as="geometry" />
        </mxCell>
        <mxCell id="Ajes0fXNSLyTVFquIbNc-3" value="AUDIOVISUAL MATERIAL" style="rounded=1;whiteSpace=wrap;html=1;labelBackgroundColor=none;fillColor=#FAE5C7;strokeColor=#0F8B8D;fontColor=#143642;" vertex="1" parent="1">
          <mxGeometry x="360" y="407" width="120" height="60" as="geometry" />
        </mxCell>
        <mxCell id="Ajes0fXNSLyTVFquIbNc-4" value="ADMINS" style="rounded=1;whiteSpace=wrap;html=1;labelBackgroundColor=none;fillColor=#FAE5C7;strokeColor=#0F8B8D;fontColor=#143642;" vertex="1" parent="1">
          <mxGeometry x="650" y="470" width="120" height="60" as="geometry" />
        </mxCell>
        <mxCell id="Ajes0fXNSLyTVFquIbNc-5" value="CONTROL" style="rhombus;whiteSpace=wrap;html=1;labelBackgroundColor=none;fillColor=#FAE5C7;strokeColor=#0F8B8D;fontColor=#143642;" vertex="1" parent="1">
          <mxGeometry x="-220" y="235" width="120" height="110" as="geometry" />
        </mxCell>
        <mxCell id="Ajes0fXNSLyTVFquIbNc-6" value="HAVE" style="rhombus;whiteSpace=wrap;html=1;labelBackgroundColor=none;fillColor=#FAE5C7;strokeColor=#0F8B8D;fontColor=#143642;" vertex="1" parent="1">
          <mxGeometry x="360" y="230" width="120" height="120" as="geometry" />
        </mxCell>
        <mxCell id="Ajes0fXNSLyTVFquIbNc-7" value="MANAGE" style="rhombus;whiteSpace=wrap;html=1;labelBackgroundColor=none;fillColor=#FAE5C7;strokeColor=#0F8B8D;fontColor=#143642;" vertex="1" parent="1">
          <mxGeometry x="650" y="230" width="120" height="120" as="geometry" />
        </mxCell>
        <mxCell id="Ajes0fXNSLyTVFquIbNc-8" value="" style="triangle;whiteSpace=wrap;html=1;rotation=90;labelBackgroundColor=none;fillColor=#FAE5C7;strokeColor=#0F8B8D;fontColor=#143642;" vertex="1" parent="1">
          <mxGeometry x="390" y="557" width="60" height="80" as="geometry" />
        </mxCell>
        <mxCell id="Ajes0fXNSLyTVFquIbNc-9" value="" style="ellipse;whiteSpace=wrap;html=1;aspect=fixed;labelBackgroundColor=none;fillColor=#FAE5C7;strokeColor=#0F8B8D;fontColor=#143642;" vertex="1" parent="1">
          <mxGeometry x="405" y="537" width="30" height="30" as="geometry" />
        </mxCell>
        <mxCell id="Ajes0fXNSLyTVFquIbNc-24" value="VIDEO" style="rounded=1;whiteSpace=wrap;html=1;labelBackgroundColor=none;fillColor=#FAE5C7;strokeColor=#0F8B8D;fontColor=#143642;" vertex="1" parent="1">
          <mxGeometry x="243" y="705" width="120" height="60" as="geometry" />
        </mxCell>
        <mxCell id="Ajes0fXNSLyTVFquIbNc-25" value="IMAGES" style="rounded=1;whiteSpace=wrap;html=1;labelBackgroundColor=none;fillColor=#FAE5C7;strokeColor=#0F8B8D;fontColor=#143642;" vertex="1" parent="1">
          <mxGeometry x="477" y="705" width="120" height="60" as="geometry" />
        </mxCell>
        <mxCell id="Ajes0fXNSLyTVFquIbNc-26" value="" style="endArrow=none;html=1;rounded=0;exitX=0.442;exitY=-0.017;exitDx=0;exitDy=0;exitPerimeter=0;labelBackgroundColor=none;strokeColor=#A8201A;fontColor=default;" edge="1" parent="1" source="Ajes0fXNSLyTVFquIbNc-24">
          <mxGeometry width="50" height="50" relative="1" as="geometry">
            <mxPoint x="230" y="550" as="sourcePoint" />
            <mxPoint x="390" y="635" as="targetPoint" />
            <Array as="points">
              <mxPoint x="296" y="675" />
            </Array>
          </mxGeometry>
        </mxCell>
        <mxCell id="Ajes0fXNSLyTVFquIbNc-27" value="" style="endArrow=none;html=1;rounded=0;exitX=0.5;exitY=0;exitDx=0;exitDy=0;labelBackgroundColor=none;strokeColor=#A8201A;fontColor=default;" edge="1" parent="1" source="Ajes0fXNSLyTVFquIbNc-25">
          <mxGeometry width="50" height="50" relative="1" as="geometry">
            <mxPoint x="230" y="550" as="sourcePoint" />
            <mxPoint x="450" y="635" as="targetPoint" />
            <Array as="points">
              <mxPoint x="537" y="675" />
            </Array>
          </mxGeometry>
        </mxCell>
        <mxCell id="Ajes0fXNSLyTVFquIbNc-28" value="" style="endArrow=none;html=1;rounded=0;strokeColor=#A8201A;fontColor=#143642;fillColor=#FAE5C7;entryX=1;entryY=0.5;entryDx=0;entryDy=0;exitX=0.5;exitY=0;exitDx=0;exitDy=0;" edge="1" parent="1" source="Ajes0fXNSLyTVFquIbNc-7" target="Ajes0fXNSLyTVFquIbNc-1">
          <mxGeometry width="50" height="50" relative="1" as="geometry">
            <mxPoint x="230" y="310" as="sourcePoint" />
            <mxPoint x="280" y="260" as="targetPoint" />
            <Array as="points">
              <mxPoint x="710" y="100" />
            </Array>
          </mxGeometry>
        </mxCell>
        <mxCell id="Ajes0fXNSLyTVFquIbNc-30" value="" style="endArrow=none;html=1;rounded=0;strokeColor=#A8201A;fontColor=#143642;fillColor=#FAE5C7;entryX=0;entryY=0.5;entryDx=0;entryDy=0;exitX=0.5;exitY=0;exitDx=0;exitDy=0;" edge="1" parent="1" source="Ajes0fXNSLyTVFquIbNc-5" target="Ajes0fXNSLyTVFquIbNc-1">
          <mxGeometry width="50" height="50" relative="1" as="geometry">
            <mxPoint x="230" y="310" as="sourcePoint" />
            <mxPoint x="280" y="260" as="targetPoint" />
            <Array as="points">
              <mxPoint x="-160" y="100" />
              <mxPoint x="-20" y="100" />
              <mxPoint x="110" y="100" />
            </Array>
          </mxGeometry>
        </mxCell>
        <mxCell id="Ajes0fXNSLyTVFquIbNc-31" value="" style="endArrow=none;html=1;rounded=0;strokeColor=#A8201A;fontColor=#143642;fillColor=#FAE5C7;exitX=0.5;exitY=1;exitDx=0;exitDy=0;" edge="1" parent="1" source="Ajes0fXNSLyTVFquIbNc-1" target="Ajes0fXNSLyTVFquIbNc-6">
          <mxGeometry width="50" height="50" relative="1" as="geometry">
            <mxPoint x="230" y="410" as="sourcePoint" />
            <mxPoint x="280" y="360" as="targetPoint" />
          </mxGeometry>
        </mxCell>
        <mxCell id="Ajes0fXNSLyTVFquIbNc-32" value="" style="endArrow=none;html=1;rounded=0;strokeColor=#A8201A;fontColor=#143642;fillColor=#FAE5C7;entryX=0.5;entryY=1;entryDx=0;entryDy=0;exitX=0.5;exitY=0;exitDx=0;exitDy=0;" edge="1" parent="1" source="Ajes0fXNSLyTVFquIbNc-3" target="Ajes0fXNSLyTVFquIbNc-6">
          <mxGeometry width="50" height="50" relative="1" as="geometry">
            <mxPoint x="230" y="410" as="sourcePoint" />
            <mxPoint x="280" y="360" as="targetPoint" />
          </mxGeometry>
        </mxCell>
        <mxCell id="Ajes0fXNSLyTVFquIbNc-33" value="" style="endArrow=none;html=1;rounded=0;strokeColor=#A8201A;fontColor=#143642;fillColor=#FAE5C7;entryX=0.5;entryY=1;entryDx=0;entryDy=0;exitX=0;exitY=0.5;exitDx=0;exitDy=0;" edge="1" parent="1" source="Ajes0fXNSLyTVFquIbNc-2" target="Ajes0fXNSLyTVFquIbNc-5">
          <mxGeometry width="50" height="50" relative="1" as="geometry">
            <mxPoint x="230" y="410" as="sourcePoint" />
            <mxPoint x="280" y="360" as="targetPoint" />
            <Array as="points">
              <mxPoint x="-160" y="500" />
            </Array>
          </mxGeometry>
        </mxCell>
        <mxCell id="Ajes0fXNSLyTVFquIbNc-34" value="" style="endArrow=none;html=1;rounded=0;strokeColor=#A8201A;fontColor=#143642;fillColor=#FAE5C7;entryX=0.5;entryY=1;entryDx=0;entryDy=0;exitX=0.5;exitY=0;exitDx=0;exitDy=0;" edge="1" parent="1" source="Ajes0fXNSLyTVFquIbNc-4" target="Ajes0fXNSLyTVFquIbNc-7">
          <mxGeometry width="50" height="50" relative="1" as="geometry">
            <mxPoint x="230" y="410" as="sourcePoint" />
            <mxPoint x="280" y="360" as="targetPoint" />
          </mxGeometry>
        </mxCell>
        <mxCell id="Ajes0fXNSLyTVFquIbNc-35" value="" style="endArrow=none;html=1;rounded=0;strokeColor=#A8201A;fontColor=#143642;fillColor=#FAE5C7;entryX=0.5;entryY=1;entryDx=0;entryDy=0;exitX=0.5;exitY=0;exitDx=0;exitDy=0;" edge="1" parent="1" source="Ajes0fXNSLyTVFquIbNc-9" target="Ajes0fXNSLyTVFquIbNc-3">
          <mxGeometry width="50" height="50" relative="1" as="geometry">
            <mxPoint x="420" y="507" as="sourcePoint" />
            <mxPoint x="280" y="397" as="targetPoint" />
          </mxGeometry>
        </mxCell>
        <mxCell id="Ajes0fXNSLyTVFquIbNc-36" value="" style="endArrow=none;html=1;rounded=0;strokeColor=#A8201A;fontColor=#143642;fillColor=#FAE5C7;" edge="1" parent="1">
          <mxGeometry width="50" height="50" relative="1" as="geometry">
            <mxPoint x="375" y="612" as="sourcePoint" />
            <mxPoint x="465" y="612" as="targetPoint" />
            <Array as="points">
              <mxPoint x="380" y="622" />
              <mxPoint x="385" y="632" />
              <mxPoint x="405" y="642" />
              <mxPoint x="420" y="642" />
              <mxPoint x="435" y="642" />
              <mxPoint x="455" y="632" />
            </Array>
          </mxGeometry>
        </mxCell>
        <mxCell id="Ajes0fXNSLyTVFquIbNc-38" value="" style="endArrow=none;html=1;rounded=0;strokeColor=#A8201A;fontColor=#143642;fillColor=#FAE5C7;" edge="1" parent="1" target="Ajes0fXNSLyTVFquIbNc-8">
          <mxGeometry width="50" height="50" relative="1" as="geometry">
            <mxPoint x="390" y="632" as="sourcePoint" />
            <mxPoint x="280" y="612" as="targetPoint" />
          </mxGeometry>
        </mxCell>
        <mxCell id="Ajes0fXNSLyTVFquIbNc-39" value="" style="endArrow=none;html=1;rounded=0;strokeColor=#A8201A;fontColor=#143642;fillColor=#FAE5C7;" edge="1" parent="1" target="Ajes0fXNSLyTVFquIbNc-8">
          <mxGeometry width="50" height="50" relative="1" as="geometry">
            <mxPoint x="450" y="632" as="sourcePoint" />
            <mxPoint x="490" y="582" as="targetPoint" />
          </mxGeometry>
        </mxCell>
        <mxCell id="Ajes0fXNSLyTVFquIbNc-44" value="URL_ICON" style="ellipse;whiteSpace=wrap;html=1;strokeColor=#0F8B8D;fontColor=#143642;fillColor=#FAE5C7;" vertex="1" parent="1">
          <mxGeometry x="243" y="447" width="80" height="40" as="geometry" />
        </mxCell>
        <mxCell id="Ajes0fXNSLyTVFquIbNc-52" value="ID" style="ellipse;whiteSpace=wrap;html=1;strokeColor=#0F8B8D;fontColor=#143642;fillColor=#FAE5C7;" vertex="1" parent="1">
          <mxGeometry x="246" y="397" width="74" height="40" as="geometry" />
        </mxCell>
        <mxCell id="Ajes0fXNSLyTVFquIbNc-53" value="URL_IMAGE" style="ellipse;whiteSpace=wrap;html=1;strokeColor=#0F8B8D;fontColor=#143642;fillColor=#FAE5C7;" vertex="1" parent="1">
          <mxGeometry x="285" y="502" width="80" height="40" as="geometry" />
        </mxCell>
        <mxCell id="Ajes0fXNSLyTVFquIbNc-56" value="" style="endArrow=none;html=1;rounded=0;strokeColor=#A8201A;fontColor=#143642;fillColor=#FAE5C7;entryX=0.638;entryY=0.025;entryDx=0;entryDy=0;entryPerimeter=0;exitX=0.25;exitY=1;exitDx=0;exitDy=0;" edge="1" parent="1" source="Ajes0fXNSLyTVFquIbNc-3" target="Ajes0fXNSLyTVFquIbNc-53">
          <mxGeometry width="50" height="50" relative="1" as="geometry">
            <mxPoint x="230" y="947" as="sourcePoint" />
            <mxPoint x="280" y="897" as="targetPoint" />
          </mxGeometry>
        </mxCell>
        <mxCell id="Ajes0fXNSLyTVFquIbNc-57" value="" style="endArrow=none;html=1;rounded=0;strokeColor=#A8201A;fontColor=#143642;fillColor=#FAE5C7;exitX=0;exitY=0.5;exitDx=0;exitDy=0;" edge="1" parent="1" source="Ajes0fXNSLyTVFquIbNc-3" target="Ajes0fXNSLyTVFquIbNc-44">
          <mxGeometry width="50" height="50" relative="1" as="geometry">
            <mxPoint x="230" y="947" as="sourcePoint" />
            <mxPoint x="280" y="897" as="targetPoint" />
          </mxGeometry>
        </mxCell>
        <mxCell id="Ajes0fXNSLyTVFquIbNc-58" value="EVENT_TYPE" style="ellipse;whiteSpace=wrap;html=1;strokeColor=#0F8B8D;fontColor=#143642;fillColor=#FAE5C7;" vertex="1" parent="1">
          <mxGeometry x="310" y="150" width="90" height="30" as="geometry" />
        </mxCell>
        <mxCell id="Ajes0fXNSLyTVFquIbNc-59" value="PRICE" style="ellipse;whiteSpace=wrap;html=1;strokeColor=#0F8B8D;fontColor=#143642;fillColor=#FAE5C7;" vertex="1" parent="1">
          <mxGeometry x="235" y="15" width="50" height="30" as="geometry" />
        </mxCell>
        <mxCell id="Ajes0fXNSLyTVFquIbNc-60" value="PALCES" style="ellipse;whiteSpace=wrap;html=1;strokeColor=#0F8B8D;fontColor=#143642;fillColor=#FAE5C7;" vertex="1" parent="1">
          <mxGeometry x="520" y="110" width="60" height="30" as="geometry" />
        </mxCell>
        <mxCell id="Ajes0fXNSLyTVFquIbNc-61" value="DURATION" style="ellipse;whiteSpace=wrap;html=1;strokeColor=#0F8B8D;fontColor=#143642;fillColor=#FAE5C7;" vertex="1" parent="1">
          <mxGeometry x="520" y="55" width="80" height="40" as="geometry" />
        </mxCell>
        <mxCell id="Ajes0fXNSLyTVFquIbNc-62" value="EVENT_DATE" style="ellipse;whiteSpace=wrap;html=1;strokeColor=#0F8B8D;fontColor=#143642;fillColor=#FAE5C7;" vertex="1" parent="1">
          <mxGeometry x="225" y="110" width="95" height="30" as="geometry" />
        </mxCell>
        <mxCell id="Ajes0fXNSLyTVFquIbNc-63" value="EVENT_DESCRIPTION" style="ellipse;whiteSpace=wrap;html=1;strokeColor=#0F8B8D;fontColor=#143642;fillColor=#FAE5C7;" vertex="1" parent="1">
          <mxGeometry x="180" y="60" width="150" height="35" as="geometry" />
        </mxCell>
        <mxCell id="Ajes0fXNSLyTVFquIbNc-64" value="URL_IMAGE" style="ellipse;whiteSpace=wrap;html=1;strokeColor=#0F8B8D;fontColor=#143642;fillColor=#FAE5C7;" vertex="1" parent="1">
          <mxGeometry x="400" y="15" width="80" height="30" as="geometry" />
        </mxCell>
        <mxCell id="Ajes0fXNSLyTVFquIbNc-65" value="EVENT_NAME" style="ellipse;whiteSpace=wrap;html=1;strokeColor=#0F8B8D;fontColor=#143642;fillColor=#FAE5C7;" vertex="1" parent="1">
          <mxGeometry x="500" y="15" width="100" height="30" as="geometry" />
        </mxCell>
        <mxCell id="Ajes0fXNSLyTVFquIbNc-66" value="EVENT_ID" style="ellipse;whiteSpace=wrap;html=1;strokeColor=#0F8B8D;fontColor=#143642;fillColor=#FAE5C7;" vertex="1" parent="1">
          <mxGeometry x="310" y="15" width="80" height="30" as="geometry" />
        </mxCell>
        <mxCell id="Ajes0fXNSLyTVFquIbNc-67" value="" style="endArrow=none;html=1;rounded=0;strokeColor=#A8201A;fontColor=#143642;fillColor=#FAE5C7;entryX=1;entryY=0.5;entryDx=0;entryDy=0;exitX=0;exitY=0.75;exitDx=0;exitDy=0;" edge="1" parent="1" source="Ajes0fXNSLyTVFquIbNc-1" target="Ajes0fXNSLyTVFquIbNc-62">
          <mxGeometry width="50" height="50" relative="1" as="geometry">
            <mxPoint x="230" y="410" as="sourcePoint" />
            <mxPoint x="280" y="360" as="targetPoint" />
          </mxGeometry>
        </mxCell>
        <mxCell id="Ajes0fXNSLyTVFquIbNc-68" value="" style="endArrow=none;html=1;rounded=0;strokeColor=#A8201A;fontColor=#143642;fillColor=#FAE5C7;entryX=1;entryY=0.5;entryDx=0;entryDy=0;exitX=0;exitY=0.25;exitDx=0;exitDy=0;" edge="1" parent="1" source="Ajes0fXNSLyTVFquIbNc-1" target="Ajes0fXNSLyTVFquIbNc-63">
          <mxGeometry width="50" height="50" relative="1" as="geometry">
            <mxPoint x="230" y="410" as="sourcePoint" />
            <mxPoint x="280" y="360" as="targetPoint" />
          </mxGeometry>
        </mxCell>
        <mxCell id="Ajes0fXNSLyTVFquIbNc-69" value="" style="endArrow=none;html=1;rounded=0;strokeColor=#A8201A;fontColor=#143642;fillColor=#FAE5C7;entryX=1;entryY=0.5;entryDx=0;entryDy=0;exitX=0.033;exitY=0.117;exitDx=0;exitDy=0;exitPerimeter=0;" edge="1" parent="1" source="Ajes0fXNSLyTVFquIbNc-1" target="Ajes0fXNSLyTVFquIbNc-59">
          <mxGeometry width="50" height="50" relative="1" as="geometry">
            <mxPoint x="230" y="410" as="sourcePoint" />
            <mxPoint x="280" y="360" as="targetPoint" />
          </mxGeometry>
        </mxCell>
        <mxCell id="Ajes0fXNSLyTVFquIbNc-70" value="" style="endArrow=none;html=1;rounded=0;strokeColor=#A8201A;fontColor=#143642;fillColor=#FAE5C7;entryX=0.738;entryY=0.867;entryDx=0;entryDy=0;entryPerimeter=0;" edge="1" parent="1" source="Ajes0fXNSLyTVFquIbNc-1" target="Ajes0fXNSLyTVFquIbNc-66">
          <mxGeometry width="50" height="50" relative="1" as="geometry">
            <mxPoint x="230" y="410" as="sourcePoint" />
            <mxPoint x="280" y="360" as="targetPoint" />
          </mxGeometry>
        </mxCell>
        <mxCell id="Ajes0fXNSLyTVFquIbNc-71" value="" style="endArrow=none;html=1;rounded=0;strokeColor=#A8201A;fontColor=#143642;fillColor=#FAE5C7;entryX=0.5;entryY=1;entryDx=0;entryDy=0;exitX=0.75;exitY=0;exitDx=0;exitDy=0;" edge="1" parent="1" source="Ajes0fXNSLyTVFquIbNc-1" target="Ajes0fXNSLyTVFquIbNc-64">
          <mxGeometry width="50" height="50" relative="1" as="geometry">
            <mxPoint x="230" y="410" as="sourcePoint" />
            <mxPoint x="280" y="360" as="targetPoint" />
          </mxGeometry>
        </mxCell>
        <mxCell id="Ajes0fXNSLyTVFquIbNc-72" value="" style="endArrow=none;html=1;rounded=0;strokeColor=#A8201A;fontColor=#143642;fillColor=#FAE5C7;entryX=0;entryY=1;entryDx=0;entryDy=0;exitX=0.917;exitY=0.05;exitDx=0;exitDy=0;exitPerimeter=0;" edge="1" parent="1" source="Ajes0fXNSLyTVFquIbNc-1" target="Ajes0fXNSLyTVFquIbNc-65">
          <mxGeometry width="50" height="50" relative="1" as="geometry">
            <mxPoint x="230" y="410" as="sourcePoint" />
            <mxPoint x="280" y="360" as="targetPoint" />
          </mxGeometry>
        </mxCell>
        <mxCell id="Ajes0fXNSLyTVFquIbNc-73" value="" style="endArrow=none;html=1;rounded=0;strokeColor=#A8201A;fontColor=#143642;fillColor=#FAE5C7;entryX=0;entryY=0.5;entryDx=0;entryDy=0;exitX=1;exitY=0.25;exitDx=0;exitDy=0;" edge="1" parent="1" source="Ajes0fXNSLyTVFquIbNc-1" target="Ajes0fXNSLyTVFquIbNc-61">
          <mxGeometry width="50" height="50" relative="1" as="geometry">
            <mxPoint x="230" y="410" as="sourcePoint" />
            <mxPoint x="280" y="360" as="targetPoint" />
          </mxGeometry>
        </mxCell>
        <mxCell id="Ajes0fXNSLyTVFquIbNc-74" value="" style="endArrow=none;html=1;rounded=0;strokeColor=#A8201A;fontColor=#143642;fillColor=#FAE5C7;entryX=0;entryY=0.5;entryDx=0;entryDy=0;exitX=1;exitY=0.75;exitDx=0;exitDy=0;" edge="1" parent="1" source="Ajes0fXNSLyTVFquIbNc-1" target="Ajes0fXNSLyTVFquIbNc-60">
          <mxGeometry width="50" height="50" relative="1" as="geometry">
            <mxPoint x="230" y="410" as="sourcePoint" />
            <mxPoint x="280" y="360" as="targetPoint" />
          </mxGeometry>
        </mxCell>
        <mxCell id="Ajes0fXNSLyTVFquIbNc-75" value="" style="endArrow=none;html=1;rounded=0;strokeColor=#A8201A;fontColor=#143642;fillColor=#FAE5C7;entryX=0.25;entryY=1;entryDx=0;entryDy=0;exitX=0.711;exitY=0.167;exitDx=0;exitDy=0;exitPerimeter=0;" edge="1" parent="1" source="Ajes0fXNSLyTVFquIbNc-58" target="Ajes0fXNSLyTVFquIbNc-1">
          <mxGeometry width="50" height="50" relative="1" as="geometry">
            <mxPoint x="230" y="210" as="sourcePoint" />
            <mxPoint x="280" y="160" as="targetPoint" />
          </mxGeometry>
        </mxCell>
        <mxCell id="Ajes0fXNSLyTVFquIbNc-76" value="PASSWORD" style="ellipse;whiteSpace=wrap;html=1;strokeColor=#0F8B8D;fontColor=#143642;fillColor=#FAE5C7;" vertex="1" parent="1">
          <mxGeometry x="70" y="550" width="85" height="30" as="geometry" />
        </mxCell>
        <mxCell id="Ajes0fXNSLyTVFquIbNc-77" value="REGISTRER" style="rhombus;whiteSpace=wrap;html=1;strokeColor=#0F8B8D;fontColor=#143642;fillColor=#FAE5C7;" vertex="1" parent="1">
          <mxGeometry x="100" y="235" width="120" height="110" as="geometry" />
        </mxCell>
        <mxCell id="Ajes0fXNSLyTVFquIbNc-78" value="" style="endArrow=none;html=1;rounded=0;strokeColor=#A8201A;fontColor=#143642;fillColor=#FAE5C7;exitX=0.5;exitY=0;exitDx=0;exitDy=0;" edge="1" parent="1" source="Ajes0fXNSLyTVFquIbNc-77">
          <mxGeometry width="50" height="50" relative="1" as="geometry">
            <mxPoint x="230" y="410" as="sourcePoint" />
            <mxPoint x="160" y="100" as="targetPoint" />
          </mxGeometry>
        </mxCell>
        <mxCell id="Ajes0fXNSLyTVFquIbNc-79" value="" style="endArrow=none;html=1;rounded=0;strokeColor=#A8201A;fontColor=#143642;fillColor=#FAE5C7;exitX=1;exitY=0.5;exitDx=0;exitDy=0;entryX=0.5;entryY=1;entryDx=0;entryDy=0;" edge="1" parent="1" source="Ajes0fXNSLyTVFquIbNc-2" target="Ajes0fXNSLyTVFquIbNc-77">
          <mxGeometry width="50" height="50" relative="1" as="geometry">
            <mxPoint x="230" y="410" as="sourcePoint" />
            <mxPoint x="280" y="360" as="targetPoint" />
            <Array as="points">
              <mxPoint x="160" y="500" />
            </Array>
          </mxGeometry>
        </mxCell>
        <mxCell id="Ajes0fXNSLyTVFquIbNc-80" value="USER_ID" style="ellipse;whiteSpace=wrap;html=1;strokeColor=#0F8B8D;fontColor=#143642;fillColor=#FAE5C7;" vertex="1" parent="1">
          <mxGeometry x="40" y="395" width="70" height="40" as="geometry" />
        </mxCell>
        <mxCell id="Ajes0fXNSLyTVFquIbNc-81" value="NAME" style="ellipse;whiteSpace=wrap;html=1;strokeColor=#0F8B8D;fontColor=#143642;fillColor=#FAE5C7;" vertex="1" parent="1">
          <mxGeometry x="-80" y="400" width="60" height="30" as="geometry" />
        </mxCell>
        <mxCell id="Ajes0fXNSLyTVFquIbNc-82" value="SURNAME" style="ellipse;whiteSpace=wrap;html=1;strokeColor=#0F8B8D;fontColor=#143642;fillColor=#FAE5C7;" vertex="1" parent="1">
          <mxGeometry x="-150" y="440" width="70" height="40" as="geometry" />
        </mxCell>
        <mxCell id="Ajes0fXNSLyTVFquIbNc-83" value="DNI" style="ellipse;whiteSpace=wrap;html=1;strokeColor=#0F8B8D;fontColor=#143642;fillColor=#FAE5C7;" vertex="1" parent="1">
          <mxGeometry x="95" y="460" width="40" height="20" as="geometry" />
        </mxCell>
        <mxCell id="Ajes0fXNSLyTVFquIbNc-84" value="EMAIL" style="ellipse;whiteSpace=wrap;html=1;strokeColor=#0F8B8D;fontColor=#143642;fillColor=#FAE5C7;" vertex="1" parent="1">
          <mxGeometry x="-140" y="550" width="60" height="30" as="geometry" />
        </mxCell>
        <mxCell id="Ajes0fXNSLyTVFquIbNc-85" value="" style="endArrow=none;html=1;rounded=0;strokeColor=#A8201A;fontColor=#143642;fillColor=#FAE5C7;exitX=0;exitY=1;exitDx=0;exitDy=0;entryX=1;entryY=0.25;entryDx=0;entryDy=0;" edge="1" parent="1" source="Ajes0fXNSLyTVFquIbNc-83" target="Ajes0fXNSLyTVFquIbNc-2">
          <mxGeometry width="50" height="50" relative="1" as="geometry">
            <mxPoint x="230" y="510" as="sourcePoint" />
            <mxPoint x="280" y="460" as="targetPoint" />
          </mxGeometry>
        </mxCell>
        <mxCell id="Ajes0fXNSLyTVFquIbNc-86" value="" style="endArrow=none;html=1;rounded=0;strokeColor=#A8201A;fontColor=#143642;fillColor=#FAE5C7;entryX=0.4;entryY=0.975;entryDx=0;entryDy=0;entryPerimeter=0;" edge="1" parent="1" source="Ajes0fXNSLyTVFquIbNc-2" target="Ajes0fXNSLyTVFquIbNc-80">
          <mxGeometry width="50" height="50" relative="1" as="geometry">
            <mxPoint x="230" y="510" as="sourcePoint" />
            <mxPoint x="280" y="460" as="targetPoint" />
          </mxGeometry>
        </mxCell>
        <mxCell id="Ajes0fXNSLyTVFquIbNc-87" value="" style="endArrow=none;html=1;rounded=0;strokeColor=#A8201A;fontColor=#143642;fillColor=#FAE5C7;exitX=0.341;exitY=-0.033;exitDx=0;exitDy=0;exitPerimeter=0;entryX=1;entryY=0.75;entryDx=0;entryDy=0;" edge="1" parent="1" source="Ajes0fXNSLyTVFquIbNc-76" target="Ajes0fXNSLyTVFquIbNc-2">
          <mxGeometry width="50" height="50" relative="1" as="geometry">
            <mxPoint x="230" y="510" as="sourcePoint" />
            <mxPoint x="280" y="460" as="targetPoint" />
          </mxGeometry>
        </mxCell>
        <mxCell id="Ajes0fXNSLyTVFquIbNc-88" value="" style="endArrow=none;html=1;rounded=0;strokeColor=#A8201A;fontColor=#143642;fillColor=#FAE5C7;exitX=0.5;exitY=0;exitDx=0;exitDy=0;entryX=0;entryY=0.75;entryDx=0;entryDy=0;" edge="1" parent="1" source="Ajes0fXNSLyTVFquIbNc-84" target="Ajes0fXNSLyTVFquIbNc-2">
          <mxGeometry width="50" height="50" relative="1" as="geometry">
            <mxPoint x="230" y="510" as="sourcePoint" />
            <mxPoint x="280" y="460" as="targetPoint" />
          </mxGeometry>
        </mxCell>
        <mxCell id="Ajes0fXNSLyTVFquIbNc-89" value="" style="endArrow=none;html=1;rounded=0;strokeColor=#A8201A;fontColor=#143642;fillColor=#FAE5C7;exitX=0.771;exitY=0.95;exitDx=0;exitDy=0;exitPerimeter=0;entryX=-0.008;entryY=0.4;entryDx=0;entryDy=0;entryPerimeter=0;" edge="1" parent="1" source="Ajes0fXNSLyTVFquIbNc-82" target="Ajes0fXNSLyTVFquIbNc-2">
          <mxGeometry width="50" height="50" relative="1" as="geometry">
            <mxPoint x="230" y="510" as="sourcePoint" />
            <mxPoint x="280" y="460" as="targetPoint" />
          </mxGeometry>
        </mxCell>
        <mxCell id="Ajes0fXNSLyTVFquIbNc-90" value="" style="endArrow=none;html=1;rounded=0;strokeColor=#A8201A;fontColor=#143642;fillColor=#FAE5C7;exitX=1;exitY=1;exitDx=0;exitDy=0;entryX=0.5;entryY=0;entryDx=0;entryDy=0;" edge="1" parent="1" source="Ajes0fXNSLyTVFquIbNc-81" target="Ajes0fXNSLyTVFquIbNc-2">
          <mxGeometry width="50" height="50" relative="1" as="geometry">
            <mxPoint x="230" y="510" as="sourcePoint" />
            <mxPoint x="10" y="450" as="targetPoint" />
          </mxGeometry>
        </mxCell>
        <mxCell id="Ajes0fXNSLyTVFquIbNc-91" value="TITLE" style="ellipse;whiteSpace=wrap;html=1;strokeColor=#0F8B8D;fontColor=#143642;fillColor=#FAE5C7;" vertex="1" parent="1">
          <mxGeometry x="246" y="347" width="90" height="40" as="geometry" />
        </mxCell>
        <mxCell id="Ajes0fXNSLyTVFquIbNc-92" value="" style="endArrow=none;html=1;rounded=0;strokeColor=#A8201A;fontColor=#143642;fillColor=#FAE5C7;entryX=1;entryY=0.5;entryDx=0;entryDy=0;exitX=0;exitY=0.25;exitDx=0;exitDy=0;" edge="1" parent="1" source="Ajes0fXNSLyTVFquIbNc-3" target="Ajes0fXNSLyTVFquIbNc-52">
          <mxGeometry width="50" height="50" relative="1" as="geometry">
            <mxPoint x="230" y="747" as="sourcePoint" />
            <mxPoint x="280" y="697" as="targetPoint" />
          </mxGeometry>
        </mxCell>
        <mxCell id="Ajes0fXNSLyTVFquIbNc-93" value="" style="endArrow=none;html=1;rounded=0;strokeColor=#A8201A;fontColor=#143642;fillColor=#FAE5C7;entryX=0.956;entryY=0.725;entryDx=0;entryDy=0;exitX=0.25;exitY=0;exitDx=0;exitDy=0;entryPerimeter=0;" edge="1" parent="1" source="Ajes0fXNSLyTVFquIbNc-3" target="Ajes0fXNSLyTVFquIbNc-91">
          <mxGeometry width="50" height="50" relative="1" as="geometry">
            <mxPoint x="230" y="747" as="sourcePoint" />
            <mxPoint x="280" y="697" as="targetPoint" />
          </mxGeometry>
        </mxCell>
        <mxCell id="Ajes0fXNSLyTVFquIbNc-94" value="PASSWORD" style="ellipse;whiteSpace=wrap;html=1;strokeColor=#0F8B8D;fontColor=#143642;fillColor=#FAE5C7;" vertex="1" parent="1">
          <mxGeometry x="770" y="570" width="85" height="30" as="geometry" />
        </mxCell>
        <mxCell id="Ajes0fXNSLyTVFquIbNc-95" value="USER_ID" style="ellipse;whiteSpace=wrap;html=1;strokeColor=#0F8B8D;fontColor=#143642;fillColor=#FAE5C7;" vertex="1" parent="1">
          <mxGeometry x="747.5" y="395" width="70" height="40" as="geometry" />
        </mxCell>
        <mxCell id="Ajes0fXNSLyTVFquIbNc-96" value="NAME" style="ellipse;whiteSpace=wrap;html=1;strokeColor=#0F8B8D;fontColor=#143642;fillColor=#FAE5C7;" vertex="1" parent="1">
          <mxGeometry x="627.5" y="400" width="60" height="30" as="geometry" />
        </mxCell>
        <mxCell id="Ajes0fXNSLyTVFquIbNc-97" value="SURNAME" style="ellipse;whiteSpace=wrap;html=1;strokeColor=#0F8B8D;fontColor=#143642;fillColor=#FAE5C7;" vertex="1" parent="1">
          <mxGeometry x="557.5" y="440" width="70" height="40" as="geometry" />
        </mxCell>
        <mxCell id="Ajes0fXNSLyTVFquIbNc-98" value="EMAIL" style="ellipse;whiteSpace=wrap;html=1;strokeColor=#0F8B8D;fontColor=#143642;fillColor=#FAE5C7;" vertex="1" parent="1">
          <mxGeometry x="567.5" y="550" width="60" height="30" as="geometry" />
        </mxCell>
        <mxCell id="Ajes0fXNSLyTVFquIbNc-99" value="" style="endArrow=none;html=1;rounded=0;strokeColor=#A8201A;fontColor=#143642;fillColor=#FAE5C7;entryX=0.264;entryY=0.95;entryDx=0;entryDy=0;entryPerimeter=0;exitX=0.825;exitY=0.033;exitDx=0;exitDy=0;exitPerimeter=0;" edge="1" parent="1" source="Ajes0fXNSLyTVFquIbNc-4" target="Ajes0fXNSLyTVFquIbNc-95">
          <mxGeometry width="50" height="50" relative="1" as="geometry">
            <mxPoint x="230" y="410" as="sourcePoint" />
            <mxPoint x="280" y="360" as="targetPoint" />
          </mxGeometry>
        </mxCell>
        <mxCell id="Ajes0fXNSLyTVFquIbNc-100" value="" style="endArrow=none;html=1;rounded=0;strokeColor=#A8201A;fontColor=#143642;fillColor=#FAE5C7;entryX=1;entryY=1;entryDx=0;entryDy=0;exitX=0.383;exitY=0.05;exitDx=0;exitDy=0;exitPerimeter=0;" edge="1" parent="1" source="Ajes0fXNSLyTVFquIbNc-4" target="Ajes0fXNSLyTVFquIbNc-96">
          <mxGeometry width="50" height="50" relative="1" as="geometry">
            <mxPoint x="230" y="410" as="sourcePoint" />
            <mxPoint x="280" y="360" as="targetPoint" />
          </mxGeometry>
        </mxCell>
        <mxCell id="Ajes0fXNSLyTVFquIbNc-101" value="" style="endArrow=none;html=1;rounded=0;strokeColor=#A8201A;fontColor=#143642;fillColor=#FAE5C7;entryX=1;entryY=1;entryDx=0;entryDy=0;exitX=-0.017;exitY=0.4;exitDx=0;exitDy=0;exitPerimeter=0;" edge="1" parent="1" source="Ajes0fXNSLyTVFquIbNc-4" target="Ajes0fXNSLyTVFquIbNc-97">
          <mxGeometry width="50" height="50" relative="1" as="geometry">
            <mxPoint x="230" y="410" as="sourcePoint" />
            <mxPoint x="280" y="360" as="targetPoint" />
          </mxGeometry>
        </mxCell>
        <mxCell id="Ajes0fXNSLyTVFquIbNc-102" value="" style="endArrow=none;html=1;rounded=0;strokeColor=#A8201A;fontColor=#143642;fillColor=#FAE5C7;entryX=1;entryY=0;entryDx=0;entryDy=0;exitX=0.117;exitY=1;exitDx=0;exitDy=0;exitPerimeter=0;" edge="1" parent="1" source="Ajes0fXNSLyTVFquIbNc-4" target="Ajes0fXNSLyTVFquIbNc-98">
          <mxGeometry width="50" height="50" relative="1" as="geometry">
            <mxPoint x="230" y="410" as="sourcePoint" />
            <mxPoint x="280" y="360" as="targetPoint" />
          </mxGeometry>
        </mxCell>
        <mxCell id="Ajes0fXNSLyTVFquIbNc-103" value="" style="endArrow=none;html=1;rounded=0;strokeColor=#A8201A;fontColor=#143642;fillColor=#FAE5C7;entryX=0.842;entryY=1.017;entryDx=0;entryDy=0;entryPerimeter=0;exitX=0.076;exitY=0.267;exitDx=0;exitDy=0;exitPerimeter=0;" edge="1" parent="1" source="Ajes0fXNSLyTVFquIbNc-94" target="Ajes0fXNSLyTVFquIbNc-4">
          <mxGeometry width="50" height="50" relative="1" as="geometry">
            <mxPoint x="230" y="410" as="sourcePoint" />
            <mxPoint x="280" y="360" as="targetPoint" />
          </mxGeometry>
        </mxCell>
      </root>
    </mxGraphModel>
  </diagram>
</mxfile>
